<svg id="cppcon" xmlns="http://www.w3.org/2000/svg" viewBox="0 0 600 200" style="border:15px solid #black; background-color:#black">
  <g id="logo">
    <path d="M8.53,83.19c-4.22,47.31,24.78,85,64.79,84.09,14.93-.32,29.29-6,41.64-15.39a105.88,105.88,0,0,0,35.09-64.65C156.86,39.72,129,.67,87.88,0,71.37-.26,55.23,5.7,41.37,16,23.57,32.06,10.94,56.29,8.53,83.19ZM91.79,18.52c31-.64,53,27.18,49.11,62.14a77.15,77.15,0,0,1-17,40.14c-11.68,18-29.95,30.23-49.32,30.65-30.31.66-51.79-27.73-48-63.4a80.45,80.45,0,0,1,7.55-26.36C44.63,37,67.37,19,91.79,18.52Z" style="fill:#fcb833"/>
    <path d="M88.39,22.26c30.31-.65,51.79,27.73,48,63.41a80.73,80.73,0,0,1-12.48,35.13,77.15,77.15,0,0,0,17-40.14c3.91-35-18.07-62.78-49.11-62.14C67.37,19,44.63,37,34.14,61.69,45.11,38.92,66,22.75,88.39,22.26Z" style="fill:#fff"/>
    <path d="M63.2,172.08c18.64.3,36.82-7.33,51.76-20.19-12.35,9.42-26.71,15.07-41.64,15.39-40,.88-69-36.78-64.79-84.09,2.41-26.9,15-51.13,32.84-67.19C20.69,31.37,5.11,56.4,1,84.85-5.79,132.37,22.05,171.43,63.2,172.08Z" style="fill:#fff"/>
    <polyline points="99.97 49.67 99.97 81.52 124.08 77 124.08 91.44 99.97 96.82 99.97 127.78 85.92 132.16 85.92 99.96 56.02 106.64 56.02 89.76 85.92 84.15 85.92 51.09 99.97 49.67" style="fill:#fcb833"/>
    <polygon points="103.84 76.86 113.55 75.04 113.55 69.75 103.84 71.53 103.84 76.86" style="fill:#fcb833"/>
    <polygon points="68 107.93 68 126.19 80.85 122.15 80.85 105.14 68 107.93" style="fill:#fcb833"/>
    <polygon points="51.87 86.27 81.14 80.73 81.41 43.76 68 45.11 68 78.17 38.09 83.78 38.09 100.67 52.15 97.52 51.87 86.27" style="fill:#fcb833"/>
    <path d="M248.13,49.72H228.68V33.29c0-1.78-.33-3-1-3.6s-1.9-.93-3.69-.93h-7.88c-1.79,0-3,.31-3.68.93s-1,1.82-1,3.6V102c0,1.78.33,3,1,3.6s1.89.92,3.68.92H224c1.79,0,3-.3,3.69-.92s1-1.82,1-3.6V85.92h19.45V104q0,16.59-18.27,16.59H210.25Q192,120.62,192,104V31.28q0-16.59,18.28-16.6h19.61q18.27,0,18.27,16.6Z" style="fill:#fcb833"/>
    <path d="M291.54,38.15h5q17.26,0,17.27,16.6v49.11q0,16.59-17.27,16.6h-5q-9.23,0-11.73-7v29.83H260.87V38.15h18.77V45.7Q282,38.16,291.54,38.15Zm3.19,63V57.43c0-1.79-.34-3-1-3.61s-1.9-.92-3.69-.92h-5c-3.46,0-5.19,1.85-5.19,5.53v41.74q0,5.53,5.19,5.53h5c1.79,0,3-.3,3.69-.92S294.73,103,294.73,101.18Z" style="fill:#fcb833"/>
    <path d="M357.59,38.15h5q17.26,0,17.27,16.6v49.11q0,16.59-17.27,16.6h-5q-9.22,0-11.74-7v29.83H326.91V38.15h18.77V45.7Q348,38.16,357.59,38.15Zm3.18,63V57.43c0-1.79-.33-3-1-3.61s-1.9-.92-3.68-.92h-5c-3.47,0-5.2,1.85-5.2,5.53v41.74q0,5.53,5.2,5.53h5c1.78,0,3-.3,3.68-.92S360.77,103,360.77,101.18Z" style="fill:#fcb833"/>
    <path d="M444.75,65.81H426.14V57.43c0-1.79-.33-3-1-3.61s-1.9-.92-3.69-.92h-6c-1.79,0-3,.31-3.69.92s-1,1.82-1,3.61v43.75c0,1.79.34,3,1,3.6s1.9.92,3.69.92h6c1.79,0,3-.3,3.69-.92s1-1.81,1-3.6V92.63h18.61v11.23q0,16.59-18.27,16.6H410.05q-18.27,0-18.27-16.6V54.75q0-16.61,18.27-16.6h16.43q18.27,0,18.27,16.6Z" style="fill:#fff"/>
    <path d="M473.75,38.15h18.94q17.76,0,17.77,16.6v49.11q0,16.59-17.77,16.6H473.75q-17.94,0-17.94-16.6V54.75Q455.81,38.14,473.75,38.15Zm18.1,63.53V56.93c0-1.79-.34-3-1-3.61s-1.95-.92-3.85-.92h-7.71c-1.9,0-3.19.31-3.86.92s-1,1.82-1,3.61v44.75c0,1.79.33,3,1,3.6s2,.93,3.86.93H487c1.9,0,3.18-.31,3.85-.93S491.85,103.47,491.85,101.68Z" style="fill:#fff"/>
    <path d="M554.71,38.15h5q17.26,0,17.26,16.6v65.71H557.89v-63c0-1.79-.33-3-1-3.61s-1.9-.92-3.69-.92h-5c-3.46,0-5.2,1.85-5.2,5.53v62H524V38.15h18.78V45.7Q545.15,38.16,554.71,38.15Z" style="fill:#fff"/>
    <path d="M338.92,157.68v2.68h-4.7v25.57H331V160.36h-4.7v-2.68Z" style="fill:#fff"/>
    <path d="M347.1,163.91H349c2.48,0,3.71,1.19,3.71,3.58v18.44h-3.24V168a1.74,1.74,0,0,0-.26-1.13,1.77,1.77,0,0,0-1.2-.27h-1.88a1.36,1.36,0,0,0-1.6,1.63v17.71h-3.24V155.55h3.24v9.85A2.41,2.41,0,0,1,347.1,163.91Z" style="fill:#fff"/>
    <path d="M360.64,163.91H365q3.72,0,3.72,3.58V176h-8.51v5.86c0,.6.09,1,.28,1.15a1.88,1.88,0,0,0,1.18.25h2.21A1.84,1.84,0,0,0,365,183c.18-.16.26-.55.26-1.15v-2h3.25v2.5q0,3.59-3.72,3.58h-4.18q-3.72,0-3.72-3.58V167.49Q356.92,163.9,360.64,163.91Zm-.47,9.4h5.26V168a1.61,1.61,0,0,0-.28-1.13,1.78,1.78,0,0,0-1.17-.27h-2.35a1.79,1.79,0,0,0-1.18.27,1.61,1.61,0,0,0-.28,1.13Z" style="fill:#fff"/>
    <path d="M390.77,166h-3.24v-4.27a1.62,1.62,0,0,0-.29-1.16,1.92,1.92,0,0,0-1.17-.25h-2.59a1.91,1.91,0,0,0-1.19.25,1.7,1.7,0,0,0-.26,1.16v20.12a1.69,1.69,0,0,0,.26,1.14,1.75,1.75,0,0,0,1.19.27h2.59a1.76,1.76,0,0,0,1.17-.27,1.61,1.61,0,0,0,.29-1.14v-4.27h3.24v4.77q0,3.59-3.71,3.59H382.5q-3.72,0-3.72-3.59V161.27q0-3.59,3.72-3.59h4.56q3.7,0,3.71,3.59Z" style="fill:#fff"/>
    <path d="M409.34,170.45v2.72h-6.11V180h-3.29v-6.81h-6.12v-2.72h6.12v-6.82h3.29v6.82Z" style="fill:#fff"/>
    <path d="M427.2,170.45v2.72h-6.11V180H417.8v-6.81h-6.11v-2.72h6.11v-6.82h3.29v6.82Z" style="fill:#fff"/>
    <path d="M448.82,166h-3.24v-4.27a1.68,1.68,0,0,0-.28-1.16,2,2,0,0,0-1.18-.25h-2.58a1.92,1.92,0,0,0-1.2.25,1.7,1.7,0,0,0-.26,1.16v20.12a1.69,1.69,0,0,0,.26,1.14,1.77,1.77,0,0,0,1.2.27h2.58a1.79,1.79,0,0,0,1.18-.27,1.67,1.67,0,0,0,.28-1.14v-4.27h3.24v4.77q0,3.59-3.71,3.59h-4.56q-3.72,0-3.72-3.59V161.27q0-3.59,3.72-3.59h4.56q3.7,0,3.71,3.59Z" style="fill:#fff"/>
    <path d="M456.3,163.91h4.79c2.48,0,3.71,1.19,3.71,3.58v14.86c0,2.39-1.23,3.58-3.71,3.58H456.3q-3.72,0-3.72-3.58V167.49Q452.58,163.9,456.3,163.91Zm5.31,17.94V168a1.66,1.66,0,0,0-.28-1.13,1.79,1.79,0,0,0-1.18-.27h-2.91a1.79,1.79,0,0,0-1.18.27,1.61,1.61,0,0,0-.28,1.13v13.86c0,.6.09,1,.28,1.15a1.88,1.88,0,0,0,1.18.25h2.91a1.88,1.88,0,0,0,1.18-.25A1.63,1.63,0,0,0,461.61,181.85Z" style="fill:#fff"/>
    <path d="M474.63,163.91h1.88q3.71,0,3.71,3.58v18.44H477V168a1.74,1.74,0,0,0-.26-1.13,1.77,1.77,0,0,0-1.2-.27h-1.88a1.36,1.36,0,0,0-1.6,1.63v17.71H468.8v-22H472v1.49A2.41,2.41,0,0,1,474.63,163.91Z" style="fill:#fff"/>
    <path d="M491.36,158.46h-1.83a1.88,1.88,0,0,0-1.18.25,1.63,1.63,0,0,0-.28,1.15v4h3.29v2.68h-3.29v19.34h-3.24V166.59h-2.26v-2.68h2.26v-4.77q0-3.58,3.71-3.59h2.82Z" style="fill:#fff"/>
    <path d="M497.43,163.91h4.32c2.48,0,3.71,1.19,3.71,3.58V176H497v5.86c0,.6.09,1,.28,1.15a1.87,1.87,0,0,0,1.17.25h2.21a1.86,1.86,0,0,0,1.2-.25,1.71,1.71,0,0,0,.26-1.15v-2h3.24v2.5c0,2.39-1.23,3.58-3.71,3.58h-4.18q-3.72,0-3.72-3.58V167.49Q493.71,163.9,497.43,163.91Zm-.47,9.4h5.26V168a1.61,1.61,0,0,0-.28-1.13,1.78,1.78,0,0,0-1.17-.27h-2.36a1.78,1.78,0,0,0-1.17.27A1.61,1.61,0,0,0,497,168Z" style="fill:#fff"/>
    <path d="M515.85,163.91h1v2.72h-1.41q-3,0-3,3.41v15.89h-3.24v-22h3.24v2.54a4.11,4.11,0,0,1,1.25-1.79A3.13,3.13,0,0,1,515.85,163.91Z" style="fill:#fff"/>
    <path d="M522.9,163.91h4.33q3.71,0,3.71,3.58V176h-8.51v5.86a1.58,1.58,0,0,0,.29,1.15,1.83,1.83,0,0,0,1.17.25h2.21a1.86,1.86,0,0,0,1.2-.25,1.71,1.71,0,0,0,.26-1.15v-2h3.24v2.5q0,3.59-3.71,3.58H522.9q-3.71,0-3.71-3.58V167.49Q519.19,163.9,522.9,163.91Zm-.47,9.4h5.27V168a1.61,1.61,0,0,0-.28-1.13,1.79,1.79,0,0,0-1.18-.27h-2.35a1.74,1.74,0,0,0-1.17.27,1.6,1.6,0,0,0-.29,1.13Z" style="fill:#fff"/>
    <path d="M540.53,163.91h1.88q3.72,0,3.72,3.58v18.44h-3.25V168a1.68,1.68,0,0,0-.26-1.13,1.75,1.75,0,0,0-1.19-.27h-1.89a1.35,1.35,0,0,0-1.59,1.63v17.71H534.7v-22H538v1.49C538.29,164.41,539.15,163.91,540.53,163.91Z" style="fill:#fff"/>
    <path d="M561.87,170.45h-3.24V168a1.74,1.74,0,0,0-.26-1.13,1.77,1.77,0,0,0-1.2-.27h-2.35a1.81,1.81,0,0,0-1.2.27,1.74,1.74,0,0,0-.26,1.13v13.86a1.71,1.71,0,0,0,.26,1.15,1.89,1.89,0,0,0,1.2.25h2.35a1.86,1.86,0,0,0,1.2-.25,1.71,1.71,0,0,0,.26-1.15v-2.46h3.24v3c0,2.39-1.23,3.58-3.71,3.58h-4.32q-3.72,0-3.72-3.58V167.49q0-3.59,3.72-3.58h4.32c2.48,0,3.71,1.19,3.71,3.58Z" style="fill:#fff"/>
    <path d="M569.35,163.91h4.32q3.72,0,3.72,3.58V176h-8.51v5.86c0,.6.09,1,.28,1.15a1.87,1.87,0,0,0,1.17.25h2.21a1.86,1.86,0,0,0,1.2-.25c.18-.16.26-.55.26-1.15v-2h3.25v2.5q0,3.59-3.72,3.58h-4.18q-3.72,0-3.72-3.58V167.49Q565.63,163.9,569.35,163.91Zm-.47,9.4h5.26V168a1.61,1.61,0,0,0-.28-1.13,1.78,1.78,0,0,0-1.17-.27h-2.36a1.78,1.78,0,0,0-1.17.27,1.61,1.61,0,0,0-.28,1.13Z" style="fill:#fff"/>
  </g>
</svg>
